<svg id="visual" viewBox="0 0 1920 1080" width="1920" height="1080" xmlns="http://www.w3.org/2000/svg" xmlns:xlink="http://www.w3.org/1999/xlink" version="1.1"><path d="M0 336L45.7 345C91.3 354 182.7 372 274.2 368.3C365.7 364.7 457.3 339.3 548.8 353.7C640.3 368 731.7 422 823 443.7C914.3 465.3 1005.7 454.7 1097 465.5C1188.3 476.3 1279.7 508.7 1371.2 490.7C1462.7 472.7 1554.3 404.3 1645.8 357.5C1737.3 310.7 1828.7 285.3 1874.3 272.7L1920 260L1920 0L1874.3 0C1828.7 0 1737.3 0 1645.8 0C1554.3 0 1462.7 0 1371.2 0C1279.7 0 1188.3 0 1097 0C1005.7 0 914.3 0 823 0C731.7 0 640.3 0 548.8 0C457.3 0 365.7 0 274.2 0C182.7 0 91.3 0 45.7 0L0 0Z" fill="#2e8af5"></path><path d="M0 833L45.7 833C91.3 833 182.7 833 274.2 816.7C365.7 800.3 457.3 767.7 548.8 765.8C640.3 764 731.7 793 823 821.8C914.3 850.7 1005.7 879.3 1097 872.2C1188.3 865 1279.7 822 1371.2 793.2C1462.7 764.3 1554.3 749.7 1645.8 740.7C1737.3 731.7 1828.7 728.3 1874.3 726.7L1920 725L1920 258L1874.3 270.7C1828.7 283.3 1737.3 308.7 1645.8 355.5C1554.3 402.3 1462.7 470.7 1371.2 488.7C1279.7 506.7 1188.3 474.3 1097 463.5C1005.7 452.7 914.3 463.3 823 441.7C731.7 420 640.3 366 548.8 351.7C457.3 337.3 365.7 362.7 274.2 366.3C182.7 370 91.3 352 45.7 343L0 334Z" fill="#ffffff"></path><path d="M0 1081L45.7 1081C91.3 1081 182.7 1081 274.2 1081C365.7 1081 457.3 1081 548.8 1081C640.3 1081 731.7 1081 823 1081C914.3 1081 1005.7 1081 1097 1081C1188.3 1081 1279.7 1081 1371.2 1081C1462.7 1081 1554.3 1081 1645.8 1081C1737.3 1081 1828.7 1081 1874.3 1081L1920 1081L1920 723L1874.3 724.7C1828.7 726.3 1737.3 729.7 1645.8 738.7C1554.3 747.7 1462.7 762.3 1371.2 791.2C1279.7 820 1188.3 863 1097 870.2C1005.7 877.3 914.3 848.7 823 819.8C731.7 791 640.3 762 548.8 763.8C457.3 765.7 365.7 798.3 274.2 814.7C182.7 831 91.3 831 45.7 831L0 831Z" fill="#2e8af5"></path></svg>